<svg width="12" height="12" viewBox="0 0 12 12" fill="none" xmlns="http://www.w3.org/2000/svg">
<path d="M2.25 1C2.25 0.585786 2.58579 0.25 3 0.25H11C11.1017 0.25 11.1987 0.270239 11.2871 0.306909C11.3735 0.342674 11.4546 0.395297 11.5254 0.464777L11.5352 0.474588C11.6681 0.609905 11.75 0.795384 11.75 1V9C11.75 9.41421 11.4142 9.75 11 9.75C10.5858 9.75 10.25 9.41421 10.25 9V2.81066L1.53033 11.5303C1.23744 11.8232 0.762563 11.8232 0.46967 11.5303C0.176777 11.2374 0.176777 10.7626 0.46967 10.4697L9.18934 1.75H3C2.58579 1.75 2.25 1.41421 2.25 1Z" fill="#D22020" fill-opacity="0.4"/>
</svg>
